<?xml version="1.0" encoding="utf-8"?>
<!-- Generator: Adobe Illustrator 19.1.0, SVG Export Plug-In . SVG Version: 6.00 Build 0)  -->
<!DOCTYPE svg PUBLIC "-//W3C//DTD SVG 1.1//EN" "http://www.w3.org/Graphics/SVG/1.1/DTD/svg11.dtd">
<svg version="1.1" id="Layer_1" xmlns="http://www.w3.org/2000/svg" xmlns:xlink="http://www.w3.org/1999/xlink" x="0px" y="0px"
	 viewBox="0 0 24 24" enable-background="new 0 0 24 24" xml:space="preserve">
<g>
	<path fill="none" stroke="#F0281E" stroke-linecap="round" stroke-linejoin="round" stroke-miterlimit="10" d="M21.711813,6.932014
		l-0.002951-0.002854c1.115946-1.205771,1.078684-3.057233-0.118952-4.215576
		c-1.197638-1.158343-3.111921-1.194397-4.358595-0.115063l-0.003067-0.002968L2.893314,14.138736
		c-0.552064,0.444548-0.590105,1.251665-0.082159,1.742946l5.163948,4.99452c0.507946,0.491282,1.342458,0.454473,1.802071-0.079462
		L21.711813,6.932014z"/>
	<path fill="none" stroke="#F0281E" stroke-linecap="round" stroke-linejoin="round" stroke-miterlimit="10" d="M20.237925,3.99018
		l-0.694878,0.67208c-0.240122,0.232242-0.629433,0.232242-0.869553,0l-0.74791-0.723371"/>
	<path fill="none" stroke="#F0281E" stroke-linecap="round" stroke-linejoin="round" stroke-miterlimit="10" d="M17.845354,6.304252
		l-0.691782,0.669085c-0.24012,0.232242-0.629433,0.232242-0.869553,0l-0.908273-0.878473"/>
	<path fill="none" stroke="#F0281E" stroke-linecap="round" stroke-linejoin="round" stroke-miterlimit="10" d="M15.455881,8.615328
		l-0.691782,0.669085c-0.24012,0.232243-0.629433,0.232243-0.869553,0L12.769781,8.19655"/>
	<path fill="none" stroke="#F0281E" stroke-linecap="round" stroke-linejoin="round" stroke-miterlimit="10" d="
		M13.066407,10.926404l-0.691782,0.669085c-0.24012,0.232243-0.629432,0.232243-0.869553,0l-1.269093-1.227454"/>
	<path fill="none" stroke="#F0281E" stroke-linecap="round" stroke-linejoin="round" stroke-miterlimit="10" d="M10.676934,13.23748
		l-0.691782,0.669085c-0.240121,0.232243-0.629433,0.232243-0.869553,0l-1.365312-1.320516"/>
	<path fill="none" stroke="#F0281E" stroke-linecap="round" stroke-linejoin="round" stroke-miterlimit="10" d="M8.28746,15.548556
		L7.595678,16.21764c-0.24012,0.232243-0.629432,0.232243-0.869553,0l-1.533693-1.483373"/>
	
		<line fill="none" stroke="#F0281E" stroke-linecap="round" stroke-linejoin="round" stroke-miterlimit="10" x1="5.393129" y1="18.378942" x2="1.409527" y2="22.231844"/>
</g>
</svg>
