<?xml version="1.0" encoding="utf-8"?>
<!-- Generator: Adobe Illustrator 19.1.0, SVG Export Plug-In . SVG Version: 6.00 Build 0)  -->
<!DOCTYPE svg PUBLIC "-//W3C//DTD SVG 1.1//EN" "http://www.w3.org/Graphics/SVG/1.1/DTD/svg11.dtd">
<svg version="1.1" id="Layer_1" xmlns="http://www.w3.org/2000/svg" xmlns:xlink="http://www.w3.org/1999/xlink" x="0px" y="0px"
	 viewBox="0 0 24 24" enable-background="new 0 0 24 24" xml:space="preserve">
<path fill="none" stroke="#F0281E" stroke-linecap="round" stroke-linejoin="round" stroke-miterlimit="10" d="M7.259951,16.607586
	c-1.965368,0.291666-3.993561,0.086754-5.869425-0.613329c0.555734,1.382353,1.40969,2.67902,2.567582,3.794645
	c1.157892,1.115627,2.503667,1.938429,3.93839,2.473877C7.169892,20.455389,6.957235,18.501213,7.259951,16.607586z"/>
<path fill="none" stroke="#F0281E" stroke-linecap="round" stroke-linejoin="round" stroke-miterlimit="10" d="M16.782152,7.432971
	c1.965368-0.291666,3.99358-0.086771,5.869444,0.613311c-0.555735-1.382352-1.409708-2.679002-2.5676-3.794628
	s-2.503687-1.938411-3.93841-2.473858C16.872192,3.585186,17.084867,5.539345,16.782152,7.432971z"/>
<path fill="none" stroke="#F0281E" stroke-linecap="round" stroke-linejoin="round" stroke-miterlimit="10" d="M16.782152,7.432971
	c-0.356222,2.228098-1.422873,4.371172-3.204148,6.087427s-4.005541,2.74397-6.318053,3.087188
	c-0.302715,1.893627-0.090058,3.847803,0.636548,5.655193l0.000019-0.000019l14.75506-14.216459l0.000019-0.000018
	C20.775732,7.3462,18.74752,7.141305,16.782152,7.432971z"/>
<path fill="none" stroke="#F0281E" stroke-linecap="round" stroke-linejoin="round" stroke-miterlimit="10" d="M16.782148,7.432976
	c0.302715-1.893627,0.09004-3.847785-0.636566-5.655175c-0.037107-0.013841-0.074381-0.02713-0.111599-0.04058L1.348404,15.886737
	c0.013959,0.035859,0.027752,0.071772,0.042117,0.107524c1.875864,0.700083,3.904057,0.904995,5.869425,0.613331
	c2.312512-0.34322,4.536777-1.370934,6.318053-3.087189S16.425926,9.661075,16.782148,7.432976z"/>
<g>
	<path fill="#F0281E" stroke="#F0281E" stroke-linecap="round" stroke-linejoin="round" stroke-miterlimit="10" d="
		M7.259949,16.602331c-0.491333,0.072937-0.986633,0.114807-1.482483,0.125671
		c-0.380554,0.008362-0.760742-0.018188-1.140503-0.046387c0.04364,1.335632,1.15448,2.405945,2.54071,2.447937
		C7.110291,18.286963,7.12616,17.439123,7.259949,16.602331z"/>
	<path fill="#F0281E" stroke="#F0281E" stroke-linecap="round" stroke-linejoin="round" stroke-miterlimit="10" d="
		M16.915527,4.763951c-0.01947,0-0.037476,0.005066-0.056824,0.005493c0.081787,0.885437,0.064148,1.778137-0.076538,2.658264
		c0.913452-0.135559,1.839905-0.152588,2.758911-0.07373c0.000427-0.018677,0.005737-0.036072,0.005737-0.05481
		C19.546814,5.899022,18.368713,4.763951,16.915527,4.763951z"/>
</g>
</svg>
