<?xml version="1.0" encoding="utf-8"?>
<!-- Generator: Adobe Illustrator 19.1.0, SVG Export Plug-In . SVG Version: 6.00 Build 0)  -->
<!DOCTYPE svg PUBLIC "-//W3C//DTD SVG 1.1//EN" "http://www.w3.org/Graphics/SVG/1.1/DTD/svg11.dtd">
<svg version="1.1" id="Layer_1" xmlns="http://www.w3.org/2000/svg" xmlns:xlink="http://www.w3.org/1999/xlink" x="0px" y="0px"
	 viewBox="0 0 24 24" enable-background="new 0 0 24 24" xml:space="preserve">
<polygon fill="#F0281E" stroke="#F0281E" stroke-width="0.5" stroke-linecap="round" stroke-linejoin="round" stroke-miterlimit="10" points="
	6.80613,14.35559 7.362663,20.840342 16.164648,20.840342 16.721182,14.35559 "/>
<path fill="none" stroke="#F0281E" stroke-linecap="round" stroke-linejoin="round" stroke-miterlimit="10" d="M6.964944,5.856518
	L4.795929,5.855058L6.07117,21.373276c0.041925,0.488575,0.432659,0.862886,0.900743,0.862886h9.583525
	c0.468084,0,0.858818-0.374311,0.900743-0.862886L18.79941,5.856339h-1.503147"/>
<path fill="none" stroke="#F0281E" stroke-linecap="round" stroke-linejoin="round" stroke-miterlimit="10" d="M7.691819,14.606654
	h8.143696c0.220736-0.55078,0.3437-1.155239,0.3437-1.790076c0-0.847603-0.233333-1.631549-0.612987-2.31477L8.575932,9.627561
	c-0.756688,0.830602-1.227814,1.949944-1.227814,3.189017C7.348118,13.451415,7.471083,14.055874,7.691819,14.606654z"/>
<path fill="none" stroke="#F0281E" stroke-linecap="round" stroke-linejoin="round" stroke-miterlimit="10" d="M14.886741,4.477286
	c-0.739352-0.928149-1.96973-0.223969-2.472183-0.750612c-0.502508-0.526588,0.193812-1.787903,0.193812-1.787903
	c-1.019341,0-2.128482,0.865663-2.414379,1.94632c-0.102229,0.386343-0.11962,0.809253-0.003678,1.203734l4.837064,0.60496
	C15.104522,5.288434,15.13178,4.784923,14.886741,4.477286z"/>
<path fill="none" stroke="#F0281E" stroke-linecap="round" stroke-linejoin="round" stroke-miterlimit="10" d="M15.075815,5.699861
	l-0.048439-0.006076l-4.837064-0.60496L9.970469,5.061344C9.294716,4.97684,8.681561,5.482414,8.600904,6.190551v0.000056
	c-0.03612,0.317001,0.045206,0.617614,0.201616,0.864213l6.960752,0.870624c0.207414-0.201059,0.353956-0.473188,0.390022-0.790245
	C16.233953,6.427006,15.751568,5.784365,15.075815,5.699861z"/>
<path fill="none" stroke="#F0281E" stroke-linecap="round" stroke-linejoin="round" stroke-miterlimit="10" d="M16.015949,7.957049
	l-0.252676-0.031605L8.802521,7.054821L8.735798,7.046459c-0.675752-0.084504-1.288962,0.42107-1.369564,1.129264
	C7.285576,8.883916,7.768017,9.526502,8.443769,9.611006l0.132162,0.016555l6.990296,0.874248l0.157692,0.019732
	c0.675752,0.084559,1.288907-0.421015,1.369563-1.129208C17.174141,8.684139,16.6917,8.041553,16.015949,7.957049z"/>
</svg>
