<?xml version="1.0" encoding="utf-8"?>
<!-- Generator: Adobe Illustrator 19.1.0, SVG Export Plug-In . SVG Version: 6.00 Build 0)  -->
<!DOCTYPE svg PUBLIC "-//W3C//DTD SVG 1.1//EN" "http://www.w3.org/Graphics/SVG/1.1/DTD/svg11.dtd">
<svg version="1.1" id="Layer_1" xmlns="http://www.w3.org/2000/svg" xmlns:xlink="http://www.w3.org/1999/xlink" x="0px" y="0px"
	 viewBox="0 0 24 24" enable-background="new 0 0 24 24" xml:space="preserve">
<path fill="none" stroke="#F0281E" stroke-linecap="round" stroke-linejoin="round" stroke-miterlimit="10" d="M14.323892,5.307935
	c0.464957-0.393156,1.39683-1.272752,1.149469-2.352404"/>
<g>
	<path fill="none" d="M9.134741,11.434114c0.137774-0.603512,0.263409-1.206122,0.59428-1.713121
		c0.332685-0.509778,0.79351-0.924227,1.280834-1.297258c0.478242-0.36608,0.979886-0.753799,1.568234-0.950705
		c0.563684-0.188651,1.194667-0.307855,1.824856-0.307855c0.628851,0,1.198826,0.297606,1.761489,0.485492
		c0.58728,0.196105,1.21777,0.312298,1.695532,0.676973c0.486813,0.371585,0.822077,0.912181,1.15513,1.420122
		c0.331282,0.505237,0.667862,1.03417,0.807125,1.635808"/>
	<path fill="none" stroke="#F0281E" stroke-linecap="round" stroke-linejoin="round" stroke-miterlimit="10" d="M9.134741,11.434114
		c0.137774-0.603512,0.263409-1.206122,0.59428-1.713121c0.332685-0.509778,0.79351-0.924227,1.280834-1.297258
		c0.478242-0.36608,0.979886-0.753799,1.568234-0.950705c0.563684-0.188651,1.194667-0.307855,1.824856-0.307855
		c0.628851,0,1.198826,0.297606,1.761489,0.485492c0.58728,0.196105,1.21777,0.312298,1.695532,0.676973
		c0.486813,0.371585,0.822077,0.912181,1.15513,1.420122c0.331282,0.505237,0.667862,1.03417,0.807125,1.635808"/>
</g>
<path fill="#FFFFFF" stroke="#F0281E" stroke-linecap="round" stroke-linejoin="round" stroke-miterlimit="10" d="
	M15.396426,21.044468c4.866742,0,6.280192-4.131647,6.544003-8.235309c0.049944-0.776907-0.586084-1.43189-1.39245-1.43189H3.452021
	c-0.806366,0-1.442395,0.654983-1.392451,1.43189c0.26381,4.103662,1.67726,8.235309,6.544003,8.235309H15.396426z"/>
<path fill="#F0281E" stroke="#F0281E" stroke-linecap="round" stroke-linejoin="round" stroke-miterlimit="10" d="
	M12.547283,7.479598c-0.484618-0.232476-0.817663-0.71522-0.817663-1.273054c0-0.784645,0.658932-1.420726,1.471766-1.420726
	c0.812833,0,1.471765,0.636081,1.471765,1.420726c0,0.372065-0.14816,0.710725-0.390634,0.964002"/>
<path fill="none" stroke="#F0281E" stroke-linecap="round" stroke-linejoin="round" stroke-miterlimit="10" d="M4.430351,11.387962
	c-0.008764-0.185684-0.010769-0.373101-0.010769-0.559877c0-0.5762,0.119655-1.12406,0.297329-1.642762
	c0.182887-0.533919,0.42087-1.045621,0.760517-1.488219C5.81671,7.254982,6.18018,6.791359,6.644024,6.47112
	c0.454606-0.313861,0.996928-0.550493,1.5409-0.718045C8.706762,5.59234,9.285161,5.67071,9.862213,5.67071
	c0.577037,0,1.155617-0.07901,1.677443,0.081717c0.076498,0.023562,0.151553,0.05054,0.225322,0.08038"/>
</svg>
