<?xml version="1.0" encoding="utf-8"?>
<!-- Generator: Adobe Illustrator 19.1.0, SVG Export Plug-In . SVG Version: 6.00 Build 0)  -->
<!DOCTYPE svg PUBLIC "-//W3C//DTD SVG 1.1//EN" "http://www.w3.org/Graphics/SVG/1.1/DTD/svg11.dtd">
<svg version="1.1" id="Layer_1" xmlns="http://www.w3.org/2000/svg" xmlns:xlink="http://www.w3.org/1999/xlink" x="0px" y="0px"
	 viewBox="0 0 24 24" enable-background="new 0 0 24 24" xml:space="preserve">
<g>
	<g>
		<path fill="none" stroke="#F0281E" stroke-linecap="round" stroke-linejoin="round" stroke-miterlimit="10" d="
			M15.284469,15.096794c2.333243,0,3.010888-3.872247,3.137366-6.026486c0.023945-0.407842-0.280985-0.751678-0.667578-0.751678
			H9.558008c-0.386593,0-0.691522,0.343837-0.667577,0.751678c0.126477,2.15424,0.804122,6.026486,3.137365,6.026486H15.284469z"/>
		<path fill="none" stroke="#F0281E" stroke-linecap="round" stroke-linejoin="round" stroke-miterlimit="10" d="
			M11.92906,15.096791c-2.474704,0-3.193433,4.406863-3.327578,6.561101c-0.025396,0.407843,0.298019,0.751678,0.708051,0.751678
			h8.69317c0.410032,0,0.733448-0.343836,0.708052-0.751678c-0.134146-2.154238-0.852875-6.561101-3.327578-6.561101H11.92906z"/>
		
			<line fill="none" stroke="#F0281E" stroke-linecap="round" stroke-linejoin="round" stroke-miterlimit="10" x1="11.281105" y1="4.152658" x2="5.287846" y2="4.152658"/>
		
			<line fill="none" stroke="#F0281E" stroke-linecap="round" stroke-linejoin="round" stroke-miterlimit="10" x1="18.333868" y1="4.152658" x2="16.120087" y2="4.152658"/>
		<path fill="none" stroke="#F0281E" stroke-linecap="round" stroke-linejoin="round" stroke-miterlimit="10" d="
			M13.656133,1.926184c-1.231977-0.756111-2.463953-0.236902-2.463953,1.575232c0,1.134167,0.973659,2.940433,2.463953,3.213473"/>
		<path fill="none" stroke="#F0281E" stroke-linecap="round" stroke-linejoin="round" stroke-miterlimit="10" d="
			M13.656133,1.926184c1.231977-0.756111,2.463954-0.236902,2.463954,1.575232c0,1.134167-0.97366,2.940433-2.463954,3.213473"/>
		<path fill="#F0281E" stroke="#F0281E" stroke-linecap="round" stroke-linejoin="round" stroke-miterlimit="10" d="
			M15.16738,20.364311h-3.041153c-0.459334,0-0.831697-0.372364-0.831697-0.831697v-0.000002
			c0-0.459333,0.372363-0.831696,0.831697-0.831696h3.041153c0.459333,0,0.831697,0.372362,0.831697,0.831696v0.000002
			C15.999077,19.991947,15.626714,20.364311,15.16738,20.364311z"/>
	</g>
	<path fill="#F0281E" stroke="#F0281E" stroke-linecap="round" stroke-linejoin="round" stroke-miterlimit="10" d="
		M11.906023,5.285184c0.654727-0.64014,1.334007-0.700694,2.127865-0.138409s1.422841,0.269695,1.422841,0.269695
		l-1.800596,1.200897L11.906023,5.285184z"/>
</g>
</svg>
