<?xml version="1.0" encoding="utf-8"?>
<!-- Generator: Adobe Illustrator 19.1.0, SVG Export Plug-In . SVG Version: 6.00 Build 0)  -->
<!DOCTYPE svg PUBLIC "-//W3C//DTD SVG 1.1//EN" "http://www.w3.org/Graphics/SVG/1.1/DTD/svg11.dtd">
<svg version="1.1" id="Layer_1" xmlns="http://www.w3.org/2000/svg" xmlns:xlink="http://www.w3.org/1999/xlink" x="0px" y="0px"
	 viewBox="0 0 24 24" enable-background="new 0 0 24 24" xml:space="preserve">
<path fill="none" stroke="#F0281E" stroke-linecap="round" stroke-linejoin="round" stroke-miterlimit="10" d="M5.70555,12.668328
	l-1.18233-0.148973c-1.361689-0.171572-2.599352,0.836862-2.764397,2.252399s0.805026,2.702146,2.166715,2.873717l2.617273,0.324656
	"/>
<path fill="none" stroke="#F0281E" stroke-linecap="round" stroke-linejoin="round" stroke-miterlimit="10" d="M5.877998,14.417464
	l-1.438383-0.164322c-0.034255-0.004322-0.068344-0.006396-0.102266-0.006396c-0.185909,0-0.365332,0.064133-0.513993,0.185137
	c-0.175599,0.14313-0.287177,0.348837-0.314116,0.579263c-0.055373,0.475546,0.271713,0.909431,0.729334,0.967167l1.901487,0.212968
	"/>
<path fill="none" stroke="#F0281E" stroke-linecap="round" stroke-linejoin="round" stroke-miterlimit="10" d="M15.847497,22.280117
	c3.850396,0,4.706416-5.683622,5.023425-10.993981c0.03834-0.642241-0.4499-1.183691-1.068897-1.183691H6.678516
	c-0.618997,0-1.107237,0.541451-1.068898,1.183691c0.317009,5.310359,1.173029,10.993981,5.023427,10.993981H15.847497z"/>
<path fill="none" stroke="#F0281E" stroke-linecap="round" stroke-linejoin="round" stroke-miterlimit="10" d="M16.500671,4.382498
	c-0.910767-1.134094-2.42627-0.273682-3.045288-0.917114c-0.618958-0.643494,0.238831-2.184692,0.238831-2.184692
	c-1.255676,0-2.621948,1.057739-2.974121,2.378235c-0.125854,0.472046-0.147339,0.988831-0.004517,1.470764l5.958313,0.739258
	C16.76886,5.373648,16.80249,4.758413,16.500671,4.382498z"/>
<path fill="none" stroke="#F0281E" stroke-linecap="round" stroke-linejoin="round" stroke-miterlimit="10" d="M16.733521,5.876333
	l-0.059631-0.007385l-6.229126-0.772827C9.612366,4.992849,8.857056,5.610647,8.75769,6.475943
	c-0.044434,0.38739,0.055664,0.754761,0.248352,1.05603l8.574402,1.063721c0.255432-0.245667,0.435974-0.578186,0.480408-0.965576
	C18.160217,6.764822,17.565918,5.979605,16.733521,5.876333z"/>
<path fill="none" stroke="#F0281E" stroke-linecap="round" stroke-linejoin="round" stroke-miterlimit="10" d="M17.891663,8.634329
	l-0.311218-0.038635L8.923889,7.52178C8.091492,7.418509,7.336182,8.036245,7.236816,8.901541
	c-0.05188,0.451843,0.08844,0.879028,0.349915,1.201477h11.637207C19.17981,9.356741,18.631226,8.726065,17.891663,8.634329z"/>
</svg>
